<svg aria-hidden="true" role="img"
     width="31.88" height="32"
     preserveAspectRatio="xMidYMid meet"
     viewBox="0 0 512 512"
     xmlns="http://www.w3.org/2000/svg">

    <linearGradient id="YellowGradient" x1="43.376%" x2="50.316%" y1="2.242%" y2="89.03%">
        <stop offset="0%" stop-color="#FFEA83"></stop>
        <stop offset="8.333%" stop-color="#FFDD35"></stop>
        <stop offset="100%" stop-color="#FFA800"></stop>
    </linearGradient>

    <path fill="url(#YellowGradient)" d="M160 96a96 96 0 1 1 192 0A96 96 0 1 1 160 96zm80 152V512l-48.4-24.2c-20.9-10.4-43.5-17-66.8-19.3l-96-9.6C12.5 457.2 0 443.5 0 427V224c0-17.7 14.3-32 32-32H62.3c63.6 0 125.6 19.6 177.7 56zm32 264V248c52.1-36.4 114.1-56 177.7-56H480c17.7 0 32 14.3 32 32V427c0 16.4-12.5 30.2-28.8 31.8l-96 9.6c-23.2 2.3-45.9 8.9-66.8 19.3L272 512z"></path>

</svg>
